  0
SECTION
  2
HEADER
  9
$ACADVER
  1
AC1014
  9
$HANDSEED
  5
FFFF
  9
$INSUNITS
 70
     0
  9
$MEASUREMENT
 70
     1
  0
ENDSEC
  0
SECTION
  2
TABLES
  0
TABLE
  2
VPORT
  5
8
330
0
100
AcDbSymbolTable
 70
     4
  0
VPORT
  5
2E
330
8
100
AcDbSymbolTableRecord
100
AcDbViewportTableRecord
  2
*ACTIVE
 70
     0
 10
0.0
 20
0.0
 11
1.0
 21
1.0
 12
210.0
 22
148.5
 13
0.0
 23
0.0
 14
10.0
 24
10.0
 15
10.0
 25
10.0
 16
0.0
 26
0.0
 36
1.0
 17
0.0
 27
0.0
 37
0.0
 40
341.0
 41
1.24
 42
50.0
 43
0.0
 44
0.0
 50
0.0
 51
0.0
 71
     0
 72
   100
 73
     1
 74
     3
 75
     0
 76
     0
 77
     0
 78
     0
  0
ENDTAB
  0
TABLE
  2
LTYPE
  5
5
330
0
100
AcDbSymbolTable
 70
     1
  0
LTYPE
  5
14
330
5
100
AcDbSymbolTableRecord
100
AcDbLinetypeTableRecord
  2
BYBLOCK
 70
     0
  3

 72
    65
 73
     0
 40
0.0
  0
LTYPE
  5
15
330
5
100
AcDbSymbolTableRecord
100
AcDbLinetypeTableRecord
  2
BYLAYER
 70
     0
  3

 72
    65
 73
     0
 40
0.0
  0
LTYPE
  5
16
330
5
100
AcDbSymbolTableRecord
100
AcDbLinetypeTableRecord
  2
CONTINUOUS
 70
     0
  3
Solid line
 72
    65
 73
     0
 40
0.0
  0
ENDTAB
  0
TABLE
  2
LAYER
  5
2
100
AcDbSymbolTable
 70
2
  0
LAYER
  5
50
100
AcDbSymbolTableRecord
100
AcDbLayerTableRecord
  2
0
 70
0
  6
CONTINUOUS
  0
LAYER
  5
51
100
AcDbSymbolTableRecord
100
AcDbLayerTableRecord
  2
Layer_1
 70
0
  6
CONTINUOUS
  0
ENDTAB
  0
TABLE
  2
STYLE
  5
3
330
0
100
AcDbSymbolTable
 70
     1
  0
STYLE
  5
11
330
3
100
AcDbSymbolTableRecord
100
AcDbTextStyleTableRecord
  2
STANDARD
 70
     0
 40
0.0
 41
1.0
 50
0.0
 71
     0
 42
2.5
  3
txt
  4

  0
ENDTAB
  0
TABLE
  2
VIEW
  5
6
330
0
100
AcDbSymbolTable
 70
     0
  0
ENDTAB
  0
TABLE
  2
UCS
  5
7
330
0
100
AcDbSymbolTable
 70
     0
  0
ENDTAB
  0
TABLE
  2
APPID
  5
9
330
0
100
AcDbSymbolTable
 70
     2
  0
APPID
  5
12
330
9
100
AcDbSymbolTableRecord
100
AcDbRegAppTableRecord
  2
ACAD
 70
     0
  0
ENDTAB
  0
TABLE
  2
DIMSTYLE
  5
A
330
0
100
AcDbSymbolTable
 70
     1
  0
DIMSTYLE
105
27
330
A
100
AcDbSymbolTableRecord
100
AcDbDimStyleTableRecord
  2
ISO-25
 70
     0
  3

  4

  5

  6

  7

 40
1.0
 41
2.5
 42
0.625
 43
3.75
 44
1.25
 45
0.0
 46
0.0
 47
0.0
 48
0.0
140
2.5
141
2.5
142
0.0
143
0.03937007874016
144
1.0
145
0.0
146
1.0
147
0.625
 71
     0
 72
     0
 73
     0
 74
     0
 75
     0
 76
     0
 77
     1
 78
     8
170
     0
171
     3
172
     1
173
     0
174
     0
175
     0
176
     0
177
     0
178
     0
270
     2
271
     2
272
     2
273
     2
274
     3
340
11
275
     0
280
     0
281
     0
282
     0
283
     0
284
     8
285
     0
286
     0
287
     3
288
     0
  0
ENDTAB
  0
TABLE
  2
BLOCK_RECORD
  5
1
330
0
100
AcDbSymbolTable
 70
     1
  0
BLOCK_RECORD
  5
1F
330
1
100
AcDbSymbolTableRecord
100
AcDbBlockTableRecord
  2
*MODEL_SPACE
  0
BLOCK_RECORD
  5
1B
330
1
100
AcDbSymbolTableRecord
100
AcDbBlockTableRecord
  2
*PAPER_SPACE
  0
ENDTAB
  0
ENDSEC
  0
SECTION
  2
BLOCKS
  0
BLOCK
  5
20
330
1F
100
AcDbEntity
  8
0
100
AcDbBlockBegin
  2
*MODEL_SPACE
 70
     0
 10
0.0
 20
0.0
 30
0.0
  3
*MODEL_SPACE
  1

  0
ENDBLK
  5
21
330
1F
100
AcDbEntity
  8
0
100
AcDbBlockEnd
  0
BLOCK
  5
1C
330
1B
100
AcDbEntity
 67
     1
  8
0
100
AcDbBlockBegin
  2
*PAPER_SPACE
  1

  0
ENDBLK
  5
1D
330
1B
100
AcDbEntity
 67
     1
  8
0
100
AcDbBlockEnd
  0
ENDSEC
  0
SECTION
  2
ENTITIES
  0
SPLINE
  5
100
100
AcDbEntity
  8
Layer_1
 62
7
100
AcDbSpline
 70
8
 71
3
 72
8
 73
4
 74
0
 40
0
 40
0
 40
0
 40
0
 40
1
 40
1
 40
1
 40
1
 10
42.832944
 20
33.338967
 30
0.0
 10
42.239675
 20
33.338967
 30
0.0
 10
41.704823
 20
32.981590
 30
0.0
 10
41.477790
 20
32.433483
 30
0.0
  0
SPLINE
  5
101
100
AcDbEntity
  8
Layer_1
 62
7
100
AcDbSpline
 70
8
 71
3
 72
8
 73
4
 74
0
 40
0
 40
0
 40
0
 40
0
 40
1
 40
1
 40
1
 40
1
 10
41.477790
 20
32.433483
 30
0.0
 10
41.250754
 20
31.885372
 30
0.0
 10
41.376249
 20
31.254471
 30
0.0
 10
41.795754
 20
30.834966
 30
0.0
  0
SPLINE
  5
102
100
AcDbEntity
  8
Layer_1
 62
7
100
AcDbSpline
 70
8
 71
3
 72
8
 73
4
 74
0
 40
0
 40
0
 40
0
 40
0
 40
1
 40
1
 40
1
 40
1
 10
41.795754
 20
30.834966
 30
0.0
 10
42.215259
 20
30.415461
 30
0.0
 10
42.846161
 20
30.289969
 30
0.0
 10
43.394268
 20
30.517002
 30
0.0
  0
SPLINE
  5
103
100
AcDbEntity
  8
Layer_1
 62
7
100
AcDbSpline
 70
8
 71
3
 72
8
 73
4
 74
0
 40
0
 40
0
 40
0
 40
0
 40
1
 40
1
 40
1
 40
1
 10
43.394268
 20
30.517002
 30
0.0
 10
43.942379
 20
30.744038
 30
0.0
 10
44.299756
 20
31.278890
 30
0.0
 10
44.299756
 20
31.872159
 30
0.0
  0
SPLINE
  5
104
100
AcDbEntity
  8
Layer_1
 62
7
100
AcDbSpline
 70
8
 71
3
 72
8
 73
4
 74
0
 40
0
 40
0
 40
0
 40
0
 40
1
 40
1
 40
1
 40
1
 10
44.299756
 20
31.872159
 30
0.0
 10
44.299756
 20
32.261178
 30
0.0
 10
44.145214
 20
32.634266
 30
0.0
 10
43.870137
 20
32.909348
 30
0.0
  0
SPLINE
  5
105
100
AcDbEntity
  8
Layer_1
 62
7
100
AcDbSpline
 70
8
 71
3
 72
8
 73
4
 74
0
 40
0
 40
0
 40
0
 40
0
 40
1
 40
1
 40
1
 40
1
 10
43.870137
 20
32.909348
 30
0.0
 10
43.595055
 20
33.184430
 30
0.0
 10
43.221967
 20
33.338967
 30
0.0
 10
42.832944
 20
33.338967
 30
0.0
  0
SPLINE
  5
106
100
AcDbEntity
  8
Layer_1
 62
7
100
AcDbSpline
 70
8
 71
3
 72
8
 73
4
 74
0
 40
0
 40
0
 40
0
 40
0
 40
1
 40
1
 40
1
 40
1
 10
216.903000
 20
962.309598
 30
0.0
 10
239.833143
 20
962.309598
 30
0.0
 10
260.505436
 20
948.496813
 30
0.0
 10
269.280422
 20
927.312124
 30
0.0
  0
SPLINE
  5
107
100
AcDbEntity
  8
Layer_1
 62
7
100
AcDbSpline
 70
8
 71
3
 72
8
 73
4
 74
0
 40
0
 40
0
 40
0
 40
0
 40
1
 40
1
 40
1
 40
1
 10
269.280422
 20
927.312124
 30
0.0
 10
278.055408
 20
906.127434
 30
0.0
 10
273.205003
 20
881.742801
 30
0.0
 10
256.990943
 20
865.528742
 30
0.0
  0
SPLINE
  5
108
100
AcDbEntity
  8
Layer_1
 62
7
100
AcDbSpline
 70
8
 71
3
 72
8
 73
4
 74
0
 40
0
 40
0
 40
0
 40
0
 40
1
 40
1
 40
1
 40
1
 10
256.990943
 20
865.528742
 30
0.0
 10
240.776884
 20
849.314682
 30
0.0
 10
216.392251
 20
844.464277
 30
0.0
 10
195.207561
 20
853.239263
 30
0.0
  0
SPLINE
  5
109
100
AcDbEntity
  8
Layer_1
 62
7
100
AcDbSpline
 70
8
 71
3
 72
8
 73
4
 74
0
 40
0
 40
0
 40
0
 40
0
 40
1
 40
1
 40
1
 40
1
 10
195.207561
 20
853.239263
 30
0.0
 10
174.022872
 20
862.014249
 30
0.0
 10
160.210087
 20
882.686542
 30
0.0
 10
160.210087
 20
905.616685
 30
0.0
  0
SPLINE
  5
10a
100
AcDbEntity
  8
Layer_1
 62
7
100
AcDbSpline
 70
8
 71
3
 72
8
 73
4
 74
0
 40
0
 40
0
 40
0
 40
0
 40
1
 40
1
 40
1
 40
1
 10
160.210087
 20
905.616685
 30
0.0
 10
160.210087
 20
920.652580
 30
0.0
 10
166.183073
 20
935.072645
 30
0.0
 10
176.815057
 20
945.704628
 30
0.0
  0
SPLINE
  5
10b
100
AcDbEntity
  8
Layer_1
 62
7
100
AcDbSpline
 70
8
 71
3
 72
8
 73
4
 74
0
 40
0
 40
0
 40
0
 40
0
 40
1
 40
1
 40
1
 40
1
 10
176.815057
 20
945.704628
 30
0.0
 10
187.447040
 20
956.336612
 30
0.0
 10
201.867105
 20
962.309598
 30
0.0
 10
216.903000
 20
962.309598
 30
0.0
  0
LWPOLYLINE
  5
10c
100
AcDbEntity
  8
Layer_1
 62
7
100
AcDbPolyline
 90
128
 70
1
 10
49.550000
 20
924.621885
 30
0.0
 10
37.177000
 20
926.026985
 30
0.0
 10
25.340000
 20
924.483985
 30
0.0
 10
0.500000
 20
913.623645
 30
0.0
 10
0.500000
 20
897.609725
 30
0.0
 10
25.340000
 20
886.749385
 30
0.0
 10
37.177000
 20
885.206385
 30
0.0
 10
49.550000
 20
886.611485
 30
0.0
 10
55.016000
 20
859.131985
 30
0.0
 10
43.047000
 20
855.695185
 30
0.0
 10
32.702000
 20
849.739885
 30
0.0
 10
13.909000
 20
830.200385
 30
0.0
 10
20.037000
 20
815.405385
 30
0.0
 10
47.142000
 20
814.877685
 30
0.0
 10
58.669000
 20
817.981885
 30
0.0
 10
69.562000
 20
824.014985
 30
0.0
 10
85.128000
 20
800.718685
 30
0.0
 10
75.385000
 20
792.963685
 30
0.0
 10
68.106000
 20
783.502685
 30
0.0
 10
58.221000
 20
758.258685
 30
0.0
 10
69.545000
 20
746.934685
 30
0.0
 10
94.789000
 20
756.819685
 30
0.0
 10
104.250000
 20
764.098685
 30
0.0
 10
112.005000
 20
773.841685
 30
0.0
 10
135.301300
 20
758.275685
 30
0.0
 10
129.268200
 20
747.382685
 30
0.0
 10
126.164000
 20
735.855685
 30
0.0
 10
126.691700
 20
708.750685
 30
0.0
 10
141.486700
 20
702.622685
 30
0.0
 10
161.026200
 20
721.415685
 30
0.0
 10
166.981500
 20
731.760685
 30
0.0
 10
170.418300
 20
743.729685
 30
0.0
 10
197.897800
 20
738.263685
 30
0.0
 10
196.492700
 20
725.890685
 30
0.0
 10
198.035700
 20
714.053685
 30
0.0
 10
208.896040
 20
689.213685
 30
0.0
 10
224.909960
 20
689.213685
 30
0.0
 10
235.770300
 20
714.053685
 30
0.0
 10
237.313300
 20
725.890685
 30
0.0
 10
235.908200
 20
738.263685
 30
0.0
 10
263.387700
 20
743.729685
 30
0.0
 10
266.824500
 20
731.760685
 30
0.0
 10
272.779800
 20
721.415685
 30
0.0
 10
292.319300
 20
702.622685
 30
0.0
 10
307.114300
 20
708.750685
 30
0.0
 10
307.642000
 20
735.855685
 30
0.0
 10
304.537800
 20
747.382685
 30
0.0
 10
298.504700
 20
758.275685
 30
0.0
 10
321.801000
 20
773.841685
 30
0.0
 10
329.556000
 20
764.098685
 30
0.0
 10
339.017000
 20
756.819685
 30
0.0
 10
364.261000
 20
746.934685
 30
0.0
 10
375.585000
 20
758.258685
 30
0.0
 10
365.700000
 20
783.502685
 30
0.0
 10
358.421000
 20
792.963685
 30
0.0
 10
348.678000
 20
800.718685
 30
0.0
 10
364.244000
 20
824.014985
 30
0.0
 10
375.137000
 20
817.981885
 30
0.0
 10
386.664000
 20
814.877685
 30
0.0
 10
413.769000
 20
815.405385
 30
0.0
 10
419.897000
 20
830.200385
 30
0.0
 10
401.104000
 20
849.739885
 30
0.0
 10
390.759000
 20
855.695185
 30
0.0
 10
378.790000
 20
859.131985
 30
0.0
 10
384.256000
 20
886.611485
 30
0.0
 10
396.629000
 20
885.206385
 30
0.0
 10
408.466000
 20
886.749385
 30
0.0
 10
433.306000
 20
897.609725
 30
0.0
 10
433.306000
 20
913.623645
 30
0.0
 10
408.466000
 20
924.483985
 30
0.0
 10
396.629000
 20
926.026985
 30
0.0
 10
384.256000
 20
924.621885
 30
0.0
 10
378.790000
 20
952.101385
 30
0.0
 10
390.759000
 20
955.538185
 30
0.0
 10
401.104000
 20
961.493485
 30
0.0
 10
419.897000
 20
981.032985
 30
0.0
 10
413.769000
 20
995.827985
 30
0.0
 10
386.664000
 20
996.355685
 30
0.0
 10
375.137000
 20
993.251485
 30
0.0
 10
364.244000
 20
987.218385
 30
0.0
 10
348.678000
 20
1010.514685
 30
0.0
 10
358.421000
 20
1018.269685
 30
0.0
 10
365.700000
 20
1027.730685
 30
0.0
 10
375.585000
 20
1052.974685
 30
0.0
 10
364.261000
 20
1064.298685
 30
0.0
 10
339.017000
 20
1054.413685
 30
0.0
 10
329.556000
 20
1047.134685
 30
0.0
 10
321.801000
 20
1037.391685
 30
0.0
 10
298.504700
 20
1052.957685
 30
0.0
 10
304.537800
 20
1063.850685
 30
0.0
 10
307.642000
 20
1075.377685
 30
0.0
 10
307.114300
 20
1102.482685
 30
0.0
 10
292.319300
 20
1108.610685
 30
0.0
 10
272.779800
 20
1089.817685
 30
0.0
 10
266.824500
 20
1079.472685
 30
0.0
 10
263.387700
 20
1067.503685
 30
0.0
 10
235.908200
 20
1072.969685
 30
0.0
 10
237.313300
 20
1085.342685
 30
0.0
 10
235.770300
 20
1097.179685
 30
0.0
 10
224.909960
 20
1122.019685
 30
0.0
 10
208.896040
 20
1122.019685
 30
0.0
 10
198.035700
 20
1097.179685
 30
0.0
 10
196.492700
 20
1085.342685
 30
0.0
 10
197.897800
 20
1072.969685
 30
0.0
 10
170.418300
 20
1067.503685
 30
0.0
 10
166.981500
 20
1079.472685
 30
0.0
 10
161.026200
 20
1089.817685
 30
0.0
 10
141.486700
 20
1108.610685
 30
0.0
 10
126.691700
 20
1102.482685
 30
0.0
 10
126.164000
 20
1075.377685
 30
0.0
 10
129.268200
 20
1063.850685
 30
0.0
 10
135.301300
 20
1052.957685
 30
0.0
 10
112.005000
 20
1037.391685
 30
0.0
 10
104.250000
 20
1047.134685
 30
0.0
 10
94.789000
 20
1054.413685
 30
0.0
 10
69.545000
 20
1064.298685
 30
0.0
 10
58.221000
 20
1052.974685
 30
0.0
 10
68.106000
 20
1027.730685
 30
0.0
 10
75.385000
 20
1018.269685
 30
0.0
 10
85.128000
 20
1010.514685
 30
0.0
 10
69.562000
 20
987.218385
 30
0.0
 10
58.669000
 20
993.251485
 30
0.0
 10
47.142000
 20
996.355685
 30
0.0
 10
20.037000
 20
995.827985
 30
0.0
 10
13.909000
 20
981.032985
 30
0.0
 10
32.702000
 20
961.493485
 30
0.0
 10
43.047000
 20
955.538185
 30
0.0
 10
55.016000
 20
952.101385
 30
0.0
  0
LWPOLYLINE
  5
10d
100
AcDbEntity
  8
Layer_1
 62
7
100
AcDbPolyline
 90
1
 70
1
 10
216.903000
 20
962.309598
 30
0.0
  0
ENDSEC
  0
SECTION
  2
OBJECTS
  0
DICTIONARY
  5
C
330
0
100
AcDbDictionary
  3
ACAD_GROUP
350
D
  3
ACAD_MLINESTYLE
350
17
  0
DICTIONARY
  5
D
330
C
100
AcDbDictionary
  0
DICTIONARY
  5
1A
330
C
100
AcDbDictionary
  0
DICTIONARY
  5
17
330
C
100
AcDbDictionary
  3
STANDARD
350
18
  0
DICTIONARY
  5
19
330
C
100
AcDbDictionary
  0
ENDSEC
  0
EOF
